<svg xmlns="http://www.w3.org/2000/svg" version="1.1" xmlns:xlink="http://www.w3.org/1999/xlink" xmlns:svgjs="http://svgjs.com/svgjs" width="1440" height="560" preserveAspectRatio="none" viewBox="0 0 1440 560"><g mask="url(&quot;#SvgjsMask1042&quot;)" fill="none"><rect width="1440" height="560" x="0" y="0" fill="url(#SvgjsLinearGradient1043)"></rect><path d="M1438.79 439.26L1463.5 439.26L1463.5 439.78L1438.79 439.78z" stroke="#037b0b"></path><path d="M734.92 396.18L783.77 396.18L783.77 445.03L734.92 445.03z" stroke="#037b0b"></path><path d="M624.33 219.01a14.09 14.09 0 1 0-11.04-25.92z" stroke="#e73635"></path><path d="M511.73 117.4a1.81 1.81 0 1 0-1.23 3.4z" stroke="#e73635"></path><path d="M258.01 60.2L263.92 60.2L263.92 66.11L258.01 66.11z" stroke="#d3b714"></path><path d="M478.14 286.51 a5.79 5.79 0 1 0 11.58 0 a5.79 5.79 0 1 0 -11.58 0z" fill="#037b0b"></path><path d="M650.71 69.56a8.93 8.93 0 1 0-8.96 15.45z" fill="#037b0b"></path><path d="M1279.69 340.64 a40.04 40.04 0 1 0 80.08 0 a40.04 40.04 0 1 0 -80.08 0z" fill="#d3b714"></path><path d="M1235.51 401.54L1235.67 401.54L1235.67 452.58L1235.51 452.58z" stroke="#d3b714"></path><path d="M452.79 173.92a15.71 15.71 0 1 0 9.26-30.03z" fill="#037b0b"></path><path d="M309.08 87L359.3 87L359.3 137.22L309.08 137.22z" fill="#037b0b"></path><path d="M158.95 77.23L172.39 77.23L172.39 123.8L158.95 123.8z" stroke="#e73635"></path><path d="M205.49 199.08 a4.6 4.6 0 1 0 9.2 0 a4.6 4.6 0 1 0 -9.2 0z" stroke="#037b0b"></path><path d="M1336.52 41.99 a29.41 29.41 0 1 0 58.82 0 a29.41 29.41 0 1 0 -58.82 0z" fill="#e73635"></path><path d="M1060.18 209.4 a19.49 19.49 0 1 0 38.98 0 a19.49 19.49 0 1 0 -38.98 0z" stroke="#037b0b"></path><path d="M70.63 23.64 a37.25 37.25 0 1 0 74.5 0 a37.25 37.25 0 1 0 -74.5 0z" stroke="#d3b714"></path><path d="M981.61 316.9 a31.07 31.07 0 1 0 62.14 0 a31.07 31.07 0 1 0 -62.14 0z" stroke="#037b0b"></path><path d="M823.56 270.07L862.39 270.07L862.39 296.56L823.56 296.56z" stroke="#037b0b"></path><path d="M13.41 1.86L66.96 1.86L66.96 28.28L13.41 28.28z" fill="#d3b714"></path><path d="M177.51 456.67L177.97 456.67L177.97 485.48L177.51 485.48z" fill="#d3b714"></path><path d="M55.11 21.41a0.89 0.89 0 1 0-0.81-1.59z" fill="#d3b714"></path><path d="M1108.82 314.93L1132.21 314.93L1132.21 338.32L1108.82 338.32z" stroke="#d3b714"></path><path d="M999.29 178.55L1011.62 178.55L1011.62 228.97L999.29 228.97z" stroke="#d3b714"></path><path d="M695.36 383.62 a15.15 15.15 0 1 0 30.3 0 a15.15 15.15 0 1 0 -30.3 0z" stroke="#e73635"></path><path d="M552.21 332.75 a7.23 7.23 0 1 0 14.46 0 a7.23 7.23 0 1 0 -14.46 0z" stroke="#e73635"></path><path d="M791.44 146.45 a12.54 12.54 0 1 0 25.08 0 a12.54 12.54 0 1 0 -25.08 0z" fill="#d3b714"></path><path d="M1246.93 178.9L1258.18 178.9L1258.18 190.15L1246.93 190.15z" fill="#e73635"></path><path d="M1101.7 512.82L1126.76 512.82L1126.76 537.88L1101.7 537.88z" stroke="#037b0b"></path><path d="M1185.04 144.83a20.32 20.32 0 1 0 40.28-5.36z" fill="#d3b714"></path><path d="M1333.72 262.25 a3.19 3.19 0 1 0 6.38 0 a3.19 3.19 0 1 0 -6.38 0z" fill="#d3b714"></path><path d="M58.75 490.78L108.47 490.78L108.47 495.91L58.75 495.91z" fill="#d3b714"></path><path d="M310.64 270.63 a23.03 23.03 0 1 0 46.06 0 a23.03 23.03 0 1 0 -46.06 0z" stroke="#037b0b"></path><path d="M1017.98 442.4a49.82 49.82 0 1 0 88.24-46.27z" stroke="#d3b714"></path></g><defs><mask id="SvgjsMask1042"><rect width="1440" height="560" fill="#ffffff"></rect></mask><linearGradient x1="15.28%" y1="-39.29%" x2="84.72%" y2="139.29%" gradientUnits="userSpaceOnUse" id="SvgjsLinearGradient1043"><stop stop-color="#0e2a47" offset="0"></stop><stop stop-color="#00459e" offset="1"></stop></linearGradient></defs></svg>