<svg xmlns="http://www.w3.org/2000/svg" version="1.1" xmlns:xlink="http://www.w3.org/1999/xlink" xmlns:svgjs="http://svgjs.com/svgjs" width="1440" height="560" preserveAspectRatio="none" viewBox="0 0 1440 560"><g mask="url(&quot;#SvgjsMask1008&quot;)" fill="none"><rect width="1440" height="560" x="0" y="0" fill="#0e2a47"></rect><path d="M273.26 57.23L309.68 57.23L309.68 93.65L273.26 93.65z" fill="#d3b714"></path><path d="M300.58 206.25L315.93 206.25L315.93 213.46L300.58 213.46z" fill="#e73635"></path><path d="M1131.79 441.24L1164.31 441.24L1164.31 455.77L1131.79 455.77z" fill="#037b0b"></path><path d="M703.21 503.42a18.5 18.5 0 1 0 35.54-10.28z" fill="#037b0b"></path><path d="M75.51 73.07 a47.52 47.52 0 1 0 95.04 0 a47.52 47.52 0 1 0 -95.04 0z" fill="#e73635"></path><path d="M636.35 17.31L691.12 17.31L691.12 21.43L636.35 21.43z" stroke="#d3b714"></path><path d="M1321.35 253.31 a34.32 34.32 0 1 0 68.64 0 a34.32 34.32 0 1 0 -68.64 0z" stroke="#e73635"></path><path d="M728.69 440.51 a37.96 37.96 0 1 0 75.92 0 a37.96 37.96 0 1 0 -75.92 0z" fill="#e73635"></path><path d="M600.31 362.04L643.1 362.04L643.1 404.83L600.31 404.83z" stroke="#e73635"></path><path d="M952.06 336.18 a30.75 30.75 0 1 0 61.5 0 a30.75 30.75 0 1 0 -61.5 0z" fill="#037b0b"></path><path d="M565.45 245.15L605.06 245.15L605.06 284.76L565.45 284.76z" fill="#d3b714"></path><path d="M787.6 413.61L799.77 413.61L799.77 425.78L787.6 425.78z" fill="#e73635"></path><path d="M973.73 205.51L1007.74 205.51L1007.74 239.52L973.73 239.52z" fill="#037b0b"></path><path d="M999.19 555.22L1014.24 555.22L1014.24 570.27L999.19 570.27z" fill="#037b0b"></path><path d="M96.78 380.37L105.32 380.37L105.32 388.91L96.78 388.91z" stroke="#e73635"></path><path d="M363.06 216.2 a36.21 36.21 0 1 0 72.42 0 a36.21 36.21 0 1 0 -72.42 0z" fill="#037b0b"></path><path d="M215.15 557.93L246.46 557.93L246.46 609.1L215.15 609.1z" fill="#e73635"></path><path d="M158.91 98.25L169.74 98.25L169.74 126.52L158.91 126.52z" stroke="#e73635"></path><path d="M242.76 498.42L280.03 498.42L280.03 535.69L242.76 535.69z" fill="#d3b714"></path><path d="M175.99 367.43a19.92 19.92 0 1 0 22.95 32.57z" stroke="#037b0b"></path><path d="M509 70.23 a1.23 1.23 0 1 0 2.46 0 a1.23 1.23 0 1 0 -2.46 0z" stroke="#037b0b"></path><path d="M625.18 344.83L663.56 344.83L663.56 362.16L625.18 362.16z" fill="#d3b714"></path><path d="M1073.68 90.37L1111.12 90.37L1111.12 95.9L1073.68 95.9z" stroke="#037b0b"></path><path d="M324.64 395.13a16.55 16.55 0 1 0-1.88 33.05z" stroke="#e73635"></path><path d="M475.63 139.65a14.15 14.15 0 1 0 28.3-0.34z" stroke="#037b0b"></path><path d="M7.31 10.18L20.29 10.18L20.29 23.16L7.31 23.16z" stroke="#037b0b"></path><path d="M258.76 197.16 a7.58 7.58 0 1 0 15.16 0 a7.58 7.58 0 1 0 -15.16 0z" fill="#d3b714"></path><path d="M508.53 318.08a20.47 20.47 0 1 0 14.23-38.39z" stroke="#037b0b"></path><path d="M295.34 350.2 a40.43 40.43 0 1 0 80.86 0 a40.43 40.43 0 1 0 -80.86 0z" stroke="#037b0b"></path><path d="M703.27 245.28a43.88 43.88 0 1 0 24.2-84.36z" stroke="#037b0b"></path><path d="M537.98 312.63a22.52 22.52 0 1 0 44.66 5.86z" fill="#037b0b"></path><path d="M1414.71 55L1451.57 55L1451.57 56.51L1414.71 56.51z" fill="#037b0b"></path><path d="M41.56 433.18L43.64 433.18L43.64 441.8L41.56 441.8z" fill="#d3b714"></path></g><defs><mask id="SvgjsMask1008"><rect width="1440" height="560" fill="#ffffff"></rect></mask></defs></svg>