<svg xmlns="http://www.w3.org/2000/svg" version="1.1" xmlns:xlink="http://www.w3.org/1999/xlink" xmlns:svgjs="http://svgjs.com/svgjs" width="1440" height="560" preserveAspectRatio="none" viewBox="0 0 1440 560"><g mask="url(&quot;#SvgjsMask1009&quot;)" fill="none"><rect width="1440" height="560" x="0" y="0" fill="#0e2a47"></rect><path d="M156.9 198.11a43.54 43.54 0 1 0 85.44 16.86z" stroke="#037b0b"></path><path d="M1222.52 295.54L1233.97 295.54L1233.97 306.99L1222.52 306.99z" stroke="#037b0b"></path><path d="M295.13 263.76L308.32 263.76L308.32 276.95L295.13 276.95z" stroke="#d3b714"></path><path d="M0.54 126.63L38.96 126.63L38.96 137.36L0.54 137.36z" stroke="#e73635"></path><path d="M798.55 425.08L809.73 425.08L809.73 446.59L798.55 446.59z" stroke="#d3b714"></path><path d="M630.26 124.27a6.81 6.81 0 1 0-7.76-11.19z" stroke="#d3b714"></path><path d="M74.98 486.07 a7.35 7.35 0 1 0 14.7 0 a7.35 7.35 0 1 0 -14.7 0z" fill="#e73635"></path><path d="M449.56 122.68a15.39 15.39 0 1 0-22.55-20.95z" fill="#037b0b"></path><path d="M538.69 498.77 a39.96 39.96 0 1 0 79.92 0 a39.96 39.96 0 1 0 -79.92 0z" stroke="#e73635"></path><path d="M354.69 71.38L358.52 71.38L358.52 97.36L354.69 97.36z" fill="#d3b714"></path><path d="M1236.82 516.46a0.26 0.26 0 1 0-0.02 0.51z" fill="#037b0b"></path><path d="M42.47 470.11 a47.18 47.18 0 1 0 94.36 0 a47.18 47.18 0 1 0 -94.36 0z" fill="#e73635"></path><path d="M1126.68 419.95L1165.95 419.95L1165.95 442.54L1126.68 442.54z" stroke="#037b0b"></path><path d="M336.8 89.4L391.3 89.4L391.3 136.39L336.8 136.39z" stroke="#037b0b"></path><path d="M712.47 115.09L719.49 115.09L719.49 157.53L712.47 157.53z" stroke="#037b0b"></path><path d="M581.8 164.88L616.92 164.88L616.92 185.91L581.8 185.91z" stroke="#037b0b"></path><path d="M1352.15 68.52L1390.27 68.52L1390.27 93.96L1352.15 93.96z" stroke="#e73635"></path><path d="M740.42 435.9L784.47 435.9L784.47 479.95L740.42 479.95z" fill="#d3b714"></path><path d="M270.55 120.39a6.44 6.44 0 1 0-10.48 7.48z" stroke="#d3b714"></path><path d="M598.72 255.66L645.09 255.66L645.09 261.87L598.72 261.87z" fill="#d3b714"></path><path d="M985.27 508.64 a44.16 44.16 0 1 0 88.32 0 a44.16 44.16 0 1 0 -88.32 0z" stroke="#e73635"></path><path d="M537.06 79.81L563.01 79.81L563.01 85.58L537.06 85.58z" fill="#d3b714"></path><path d="M-22.43 133.58 a33.05 33.05 0 1 0 66.1 0 a33.05 33.05 0 1 0 -66.1 0z" stroke="#d3b714"></path><path d="M1413.72 335.01L1452.15 335.01L1452.15 373.44L1413.72 373.44z" stroke="#e73635"></path><path d="M1331.54 109.69 a5.3 5.3 0 1 0 10.6 0 a5.3 5.3 0 1 0 -10.6 0z" fill="#037b0b"></path><path d="M671.35 449.44 a49.28 49.28 0 1 0 98.56 0 a49.28 49.28 0 1 0 -98.56 0z" fill="#d3b714"></path><path d="M952.14 467.59L1003.04 467.59L1003.04 494.32L952.14 494.32z" fill="#037b0b"></path><path d="M766.04 493.33L814.89 493.33L814.89 542.18L766.04 542.18z" fill="#e73635"></path><path d="M112.17 275.54L161.84 275.54L161.84 325.21L112.17 325.21z" fill="#037b0b"></path><path d="M1278.97 24.18L1318.32 24.18L1318.32 67.5L1278.97 67.5z" fill="#d3b714"></path><path d="M299.64 179.63 a5.29 5.29 0 1 0 10.58 0 a5.29 5.29 0 1 0 -10.58 0z" fill="#d3b714"></path><path d="M168.8 433.5 a34.81 34.81 0 1 0 69.62 0 a34.81 34.81 0 1 0 -69.62 0z" fill="#d3b714"></path><path d="M1193.07 337.57L1205.02 337.57L1205.02 353.5L1193.07 353.5z" stroke="#e73635"></path></g><defs><mask id="SvgjsMask1009"><rect width="1440" height="560" fill="#ffffff"></rect></mask></defs></svg>