<svg xmlns="http://www.w3.org/2000/svg" version="1.1" xmlns:xlink="http://www.w3.org/1999/xlink" xmlns:svgjs="http://svgjs.com/svgjs" width="1440" height="560" preserveAspectRatio="none" viewBox="0 0 1440 560"><g mask="url(&quot;#SvgjsMask1006&quot;)" fill="none"><rect width="1440" height="560" x="0" y="0" fill="#0e2a47"></rect><path d="M1316.87 61.46L1363.29 61.46L1363.29 107.88L1316.87 107.88z" stroke="#e73635"></path><path d="M1120.75 30.69L1171.2 30.69L1171.2 81.14L1120.75 81.14z" fill="#e73635"></path><path d="M862.03 38.04 a9.51 9.51 0 1 0 19.02 0 a9.51 9.51 0 1 0 -19.02 0z" stroke="#e73635"></path><path d="M1190.07 520L1213.39 520L1213.39 543.32L1190.07 543.32z" fill="#037b0b"></path><path d="M1057.95 411.68L1060.7 411.68L1060.7 414.43L1057.95 414.43z" stroke="#e73635"></path><path d="M164.11 283.65L192.54 283.65L192.54 312.08L164.11 312.08z" stroke="#037b0b"></path><path d="M692.34 219.03 a9.39 9.39 0 1 0 18.78 0 a9.39 9.39 0 1 0 -18.78 0z" fill="#d3b714"></path><path d="M679.49 115.63L709 115.63L709 145.14L679.49 145.14z" stroke="#e73635"></path><path d="M735.62 290.41a43.68 43.68 0 1 0-64.66-58.74z" stroke="#d3b714"></path><path d="M1101.47 214.07L1137.36 214.07L1137.36 249.96L1101.47 249.96z" fill="#037b0b"></path><path d="M0.46 257.89L41.67 257.89L41.67 299.1L0.46 299.1z" stroke="#e73635"></path><path d="M1020.39 259.27 a12.36 12.36 0 1 0 24.72 0 a12.36 12.36 0 1 0 -24.72 0z" fill="#e73635"></path><path d="M911.11 489.53L936.06 489.53L936.06 514.48L911.11 514.48z" stroke="#037b0b"></path><path d="M485.55 63.38L515.49 63.38L515.49 117.42L485.55 117.42z" stroke="#037b0b"></path><path d="M819.76 464.83L839.17 464.83L839.17 475.72L819.76 475.72z" fill="#d3b714"></path><path d="M331.43 497.01L375.26 497.01L375.26 538.07L331.43 538.07z" stroke="#d3b714"></path><path d="M617.42 172.59a23.97 23.97 0 1 0-12.34 46.32z" stroke="#d3b714"></path><path d="M1213.4 37.24L1251.81 37.24L1251.81 75.65L1213.4 75.65z" fill="#d3b714"></path><path d="M1439.67 121.43L1451.53 121.43L1451.53 125.13L1439.67 125.13z" fill="#e73635"></path><path d="M1382.89 94.96L1394.47 94.96L1394.47 99.67L1382.89 99.67z" fill="#e73635"></path><path d="M413.38 351.25 a21.53 21.53 0 1 0 43.06 0 a21.53 21.53 0 1 0 -43.06 0z" fill="#037b0b"></path><path d="M1417.3 198.88a3.37 3.37 0 1 0-6.59-1.44z" stroke="#037b0b"></path><path d="M1101.88 181.91L1115.97 181.91L1115.97 196L1101.88 196z" fill="#037b0b"></path><path d="M1266.64 154.41 a53.23 53.23 0 1 0 106.46 0 a53.23 53.23 0 1 0 -106.46 0z" fill="#e73635"></path><path d="M537.15 365.2L577.98 365.2L577.98 406.03L537.15 406.03z" stroke="#d3b714"></path><path d="M1247.29 437.72a28.4 28.4 0 1 0 40.88 39.44z" fill="#d3b714"></path><path d="M371.64 224.41L426.65 224.41L426.65 239.51L371.64 239.51z" stroke="#e73635"></path><path d="M1291.5 377.54 a18.51 18.51 0 1 0 37.02 0 a18.51 18.51 0 1 0 -37.02 0z" fill="#e73635"></path><path d="M1435.04 13.88L1460.85 13.88L1460.85 39.69L1435.04 39.69z" fill="#037b0b"></path><path d="M445.51 316.17L482.32 316.17L482.32 358.32L445.51 358.32z" fill="#d3b714"></path><path d="M915.82 465.75a49.3 49.3 0 1 0-87.3 45.83z" fill="#e73635"></path><path d="M1210.43 229.09L1258.98 229.09L1258.98 250.23L1210.43 250.23z" stroke="#037b0b"></path><path d="M919.02 85.61a1.86 1.86 0 1 0-2.23 2.98z" fill="#d3b714"></path></g><defs><mask id="SvgjsMask1006"><rect width="1440" height="560" fill="#ffffff"></rect></mask></defs></svg>