<svg xmlns="http://www.w3.org/2000/svg" version="1.1" xmlns:xlink="http://www.w3.org/1999/xlink" xmlns:svgjs="http://svgjs.com/svgjs" width="1440" height="560" preserveAspectRatio="none" viewBox="0 0 1440 560"><g mask="url(&quot;#SvgjsMask1014&quot;)" fill="none"><rect width="1440" height="560" x="0" y="0" fill="#0e2a47"></rect><path d="M215.92 333.62 a50.89 50.89 0 1 0 101.78 0 a50.89 50.89 0 1 0 -101.78 0z" stroke="#d3b714"></path><path d="M1241.43 526.46L1277.95 526.46L1277.95 562.98L1241.43 562.98z" fill="#037b0b"></path><path d="M1057.7 265.75 a20.62 20.62 0 1 0 41.24 0 a20.62 20.62 0 1 0 -41.24 0z" stroke="#e73635"></path><path d="M756.82 20.3a12.13 12.13 0 1 0-4.36 23.87z" stroke="#037b0b"></path><path d="M1256.08 254.06a28.71 28.71 0 1 0 46.71-33.4z" fill="#037b0b"></path><path d="M395.2 102.71 a36.94 36.94 0 1 0 73.88 0 a36.94 36.94 0 1 0 -73.88 0z" fill="#e73635"></path><path d="M240.35 525.73L271.4 525.73L271.4 554.51L240.35 554.51z" stroke="#d3b714"></path><path d="M1306.79 489.22L1324.42 489.22L1324.42 499.15L1306.79 499.15z" fill="#037b0b"></path><path d="M1090.87 395.57L1130.35 395.57L1130.35 446.32L1090.87 446.32z" fill="#037b0b"></path><path d="M1305.29 125.15L1339.33 125.15L1339.33 159.19L1305.29 159.19z" stroke="#e73635"></path><path d="M655.78 355.37L700.6 355.37L700.6 378.08L655.78 378.08z" fill="#d3b714"></path><path d="M161.1 193.83L177.02 193.83L177.02 211.79L161.1 211.79z" stroke="#037b0b"></path><path d="M662.44 466.12a13.53 13.53 0 1 0 16.43 21.5z" fill="#037b0b"></path><path d="M482.53 290.56a4.01 4.01 0 1 0 7.9 1.34z" fill="#d3b714"></path><path d="M1130.13 171.26a12.15 12.15 0 1 0 5.39-23.7z" stroke="#037b0b"></path><path d="M960.07 120.63L996.44 120.63L996.44 157L960.07 157z" fill="#d3b714"></path><path d="M874.03 316.05L913.84 316.05L913.84 367.1L874.03 367.1z" fill="#d3b714"></path><path d="M1054.57 103.22L1104.57 103.22L1104.57 127.12L1054.57 127.12z" fill="#e73635"></path><path d="M845.03 226.06a14.48 14.48 0 1 0 16.83-23.56z" stroke="#d3b714"></path><path d="M1382.85 45.23L1384.22 45.23L1384.22 77.06L1382.85 77.06z" fill="#d3b714"></path><path d="M991.2 151.48L1008.86 151.48L1008.86 169.14L991.2 169.14z" stroke="#e73635"></path><path d="M217.79 236.12L225.28 236.12L225.28 243.61L217.79 243.61z" stroke="#e73635"></path><path d="M488.87 485.97a54.43 54.43 0 1 0-107.97-13.87z" stroke="#037b0b"></path><path d="M803.14 203.51L804.39 203.51L804.39 204.76L803.14 204.76z" stroke="#e73635"></path><path d="M1255.62 360.93 a44.25 44.25 0 1 0 88.5 0 a44.25 44.25 0 1 0 -88.5 0z" fill="#e73635"></path><path d="M918.39 350.75L950.44 350.75L950.44 382.8L918.39 382.8z" fill="#d3b714"></path><path d="M196.82 291.8a25.95 25.95 0 1 0 45.38-25.18z" stroke="#037b0b"></path><path d="M1108.17 438.94a16.49 16.49 0 1 0 22.09-24.48z" fill="#d3b714"></path><path d="M821.33 62.32L856.75 62.32L856.75 85.25L821.33 85.25z" fill="#037b0b"></path><path d="M830.35 355.99L864.76 355.99L864.76 399L830.35 399z" stroke="#e73635"></path><path d="M570.12 179.48L571.18 179.48L571.18 204.43L570.12 204.43z" fill="#037b0b"></path><path d="M1259.19 20.21L1300.83 20.21L1300.83 39.63L1259.19 39.63z" fill="#037b0b"></path><path d="M1360.88 464.17L1377.61 464.17L1377.61 480.9L1360.88 480.9z" fill="#037b0b"></path></g><defs><mask id="SvgjsMask1014"><rect width="1440" height="560" fill="#ffffff"></rect></mask></defs></svg>